<svg width="41" height="18" viewBox="0 0 41 18" fill="none" xmlns="http://www.w3.org/2000/svg">
<path d="M12.9236 16.7803C12.9236 16.7803 11.4501 9.43881 11.573 9.41462C11.6956 9.39043 13.464 8.97581 13.7586 9.19503C14.0535 9.41462 14.5935 16.5365 14.5935 16.5365L12.9236 16.7803ZM11.3767 8.43911L12.2364 8.29284C12.2364 8.29284 11.8436 5.63426 11.8067 5.48799C11.6301 5.46153 10.8119 5.70758 10.8119 5.70758L11.3767 8.43911ZM12.2364 5.39048C12.2364 5.39048 12.4818 7.7807 12.58 8.24408C12.7764 8.17075 13.5869 8.24408 13.5869 8.24408C13.5869 8.24408 13.3989 5.59798 13.3415 5.39048C13.2186 5.34134 12.2364 5.39048 12.2364 5.39048ZM13.8324 2.21976C13.8324 2.21976 15.0601 8.28755 15.6495 15.9269C16.3863 16.0732 17.1231 15.9269 17.1231 15.9269C17.1231 15.9269 16.0917 2.56144 16.0917 2.21976C16.0914 1.87809 13.8324 2.21976 13.8324 2.21976ZM18.5768 17.0275L20.2626 16.9413C20.2626 16.9413 20.4011 9.80052 20.1287 9.55447C19.8562 9.30842 18.0565 9.5556 17.9321 9.56807C17.8073 9.58055 18.5768 17.0275 18.5768 17.0275ZM17.829 8.5782L18.6985 8.51319C18.6985 8.51319 18.56 5.82967 18.5372 5.68037C18.364 5.63728 17.5261 5.80585 17.5261 5.80585L17.829 8.5782ZM18.9741 5.62368C18.9741 5.62368 18.9916 8.02637 19.0452 8.49693C19.2477 8.44251 20.0476 8.59105 20.0476 8.59105C20.0476 8.59105 20.1115 5.93927 20.0742 5.72724C19.9567 5.66714 18.9741 5.62368 18.9741 5.62368ZM22.9611 18C22.6909 14.4389 22.6666 10.5489 20.7018 1.21968L23.9928 0C23.9928 0 23.747 9.73173 24.4594 11.3415C26.8169 10.9514 31.704 12.0978 32.3669 13.5609C32.9069 15.0731 31.065 17.6096 22.9611 18ZM28.9286 14.3413C28.9286 14.3413 26.3256 13.1708 25.8834 13.2192L26.3252 16.2436L28.9286 14.3413ZM2.25935 18C1.98916 14.4389 1.96442 10.5489 0 1.21968L3.29065 0C3.29065 0 3.04482 9.73173 3.75721 11.3415C6.11475 10.9514 11.0018 12.0978 11.6648 13.5609C12.2051 15.0731 10.3633 17.6096 2.25935 18ZM8.22683 14.3413C8.22683 14.3413 5.62383 13.1708 5.18163 13.2192L5.62345 16.2436L8.22683 14.3413ZM33.6254 16.7803L35.2953 16.5365C35.2953 16.5365 34.7553 9.41462 34.4604 9.19503C34.1654 8.97543 32.3974 9.39006 32.2748 9.41462C32.1519 9.43881 33.6254 16.7803 33.6254 16.7803ZM32.0785 8.43911L32.9381 8.29284C32.9381 8.29284 32.5454 5.63426 32.5085 5.48799C32.3319 5.46153 31.5137 5.70758 31.5137 5.70758L32.0785 8.43911ZM32.9381 5.39048C32.9381 5.39048 33.1836 7.7807 33.2818 8.24408C33.4781 8.17075 34.2887 8.24408 34.2887 8.24408C34.2887 8.24408 34.1007 5.59798 34.0433 5.39048C33.9203 5.34134 32.9381 5.39048 32.9381 5.39048ZM34.5342 2.21976C34.5342 2.21976 35.7622 8.28755 36.3513 15.9269C37.0881 16.0732 37.8248 15.9269 37.8248 15.9269C37.8248 15.9269 36.7935 2.56144 36.7935 2.21976C36.7935 1.87809 34.5342 2.21976 34.5342 2.21976ZM39.2789 17.0275L40.9648 16.9413C40.9648 16.9413 41.1033 9.80052 40.8308 9.55447C40.5584 9.30842 38.7587 9.5556 38.6339 9.56807C38.5091 9.58055 39.2789 17.0275 39.2789 17.0275ZM38.5308 8.5782L39.4003 8.51319C39.4003 8.51319 39.2618 5.82967 39.239 5.68037C39.0658 5.63728 38.2278 5.80585 38.2278 5.80585L38.5308 8.5782ZM39.6758 5.62368C39.6758 5.62368 39.6934 8.02637 39.747 8.49693C39.9495 8.44251 40.7494 8.59105 40.7494 8.59105C40.7494 8.59105 40.8137 5.93927 40.7757 5.72724C40.6584 5.66714 39.6758 5.62368 39.6758 5.62368Z" fill="#1A9ACD"/>
</svg>
