<svg width="30" height="36" viewBox="0 0 30 36" fill="none" xmlns="http://www.w3.org/2000/svg">
<path fill-rule="evenodd" clip-rule="evenodd" d="M26.25 1.7375C26.2431 1.05203 25.6855 0.499966 25 0.5H2.4875C1.1225 0.5 0 1.6175 0 2.9975V8V33.0112C0.00198511 33.6737 0.267232 34.3083 0.737318 34.7751C1.2074 35.2419 1.84377 35.5027 2.50625 35.5H27.4937C28.8787 35.5 30 34.3862 30 33.0112V8V6.75C30 6.055 29.44 5.5 28.75 5.5H26.25V1.7375ZM3.74125 3H23.75V5.5H3.74125C3.05625 5.5 2.5 4.945 2.5 4.25C2.49793 3.5622 3.05345 3.00276 3.74125 3ZM2.5 31.76V8H27.5V31.76C27.4946 32.4426 26.9426 32.9946 26.26 33H3.74C3.05743 32.9946 2.50544 32.4426 2.5 31.76ZM21.0727 16.7038H7.42016C6.79391 16.7038 6.28516 16.1538 6.28516 15.4762C6.28516 14.7987 6.79391 14.2513 7.42016 14.25H21.0727C21.6989 14.25 22.2077 14.8 22.2077 15.4762C22.2077 16.1538 21.6989 16.7038 21.0727 16.7038ZM7.5024 21.7038H15.0886C15.4125 21.7021 15.7225 21.5718 15.9504 21.3416C16.1782 21.1114 16.3053 20.8001 16.3036 20.4762C16.3036 19.8 15.7599 19.25 15.0886 19.25H7.5024C6.83115 19.25 6.28615 19.7987 6.28615 20.4762C6.28449 20.8004 6.41173 21.1118 6.63986 21.3421C6.86799 21.5723 7.17828 21.7024 7.5024 21.7038Z" fill="#36D699"/>
</svg>
