<svg width="33" height="37" viewBox="0 0 33 37" fill="none" xmlns="http://www.w3.org/2000/svg">
<path fill-rule="evenodd" clip-rule="evenodd" d="M13.3856 34.007C6.83144 33.5145 2.77443 31.1874 2.77443 29.3135C2.77443 27.5728 6.35768 25.38 12.3537 24.7231C12.98 24.6543 13.4537 24.1257 13.4537 23.4959V21.5895C13.4537 21.173 13.2433 20.7842 12.8949 20.5564C10.3484 18.8916 8.63781 15.4325 8.63781 11.9475C8.63781 3.64906 12.7328 2.68951 15.8128 2.68951C18.8927 2.68951 22.9877 3.64906 22.9877 11.9475C22.9877 14.2023 22.3006 16.4366 21.053 18.24C20.6648 18.8005 20.8052 19.5696 21.3658 19.9572C21.9251 20.3441 22.6954 20.2049 23.083 19.6444C24.6139 17.433 25.4565 14.6989 25.4565 11.9475C25.4565 2.25492 20.2121 0.220703 15.8128 0.220703C11.4135 0.220703 6.16905 2.25492 6.16905 11.9475C6.16905 16.0443 8.03994 19.9994 10.9849 22.2289V22.4079C4.45909 23.3433 0.305664 26.0008 0.305664 29.3134C0.305664 33.0136 5.48795 35.8892 13.2012 36.4685C13.2325 36.4709 13.2638 36.4721 13.2946 36.4721C13.9341 36.4721 14.4753 35.9785 14.5241 35.3299C14.5753 34.6506 14.0655 34.0582 13.3856 34.007ZM31.4305 21.4121H17.291C16.4755 21.4121 15.8125 22.0751 15.8125 22.8906V33.3734C15.8125 34.1888 16.4755 34.8519 17.291 34.8519H31.4305C32.246 34.8519 32.9091 34.1889 32.9091 33.3734V22.8906C32.9091 22.0751 32.246 21.4121 31.4305 21.4121ZM18.2812 32.383H30.4402V23.8809H18.2812V32.383ZM21.2852 27.5801H24.9884C25.6701 27.5801 26.2228 27.0275 26.2228 26.3457C26.2228 25.6641 25.6701 25.1113 24.9884 25.1113H21.2852C20.6034 25.1113 20.0508 25.6641 20.0508 26.3457C20.0508 27.0275 20.6034 27.5801 21.2852 27.5801ZM22.7159 31.2852H21.2343C20.5526 31.2852 19.9999 30.7321 19.9999 30.0498C19.9999 29.3677 20.5526 28.8145 21.2343 28.8145H22.7159C23.3976 28.8145 23.9503 29.3677 23.9503 30.0498C23.9503 30.7321 23.3976 31.2852 22.7159 31.2852Z" fill="#36D699"/>
</svg>
