<svg version="1.1" xmlns="http://www.w3.org/2000/svg" xmlns:xlink="http://www.w3.org/1999/xlink" width="480" height="360" viewBox="0,0,480,360"><g data-paper-data="{&quot;isPaintingLayer&quot;:true}" fill="none" fill-rule="nonzero" stroke-linecap="butt" stroke-linejoin="miter" stroke-miterlimit="10" stroke-dasharray="" stroke-dashoffset="0" style="mix-blend-mode: normal"><path d="M0,360v-360h480v360z" stroke="none" stroke-width="0"/><g stroke="#000000" stroke-width="2"><path d="M342.14231,153.39099h3.47074h3.47074l-0.27766,1.24946c-0.13882,0.74043 -0.37021,2.40638 -0.50903,3.70212l-0.32395,2.45265h6.29362h6.29361v22.90689v22.90688h-6.98776h-6.98776l0.87925,-1.29574c3.1468,-4.76649 3.10053,-4.7202 4.67392,-4.7202h1.48084v-16.89094v-16.89095h-3.19308c-3.10053,0 -3.19307,0.04629 -3.42445,1.24948c-0.13882,0.74043 -1.34202,9.6718 -2.68404,19.89891l-2.45265,18.64944h-3.37819c-2.91543,0 -3.37819,-0.09255 -3.37819,-0.83297c0,-0.41648 1.15692,-9.11649 2.54522,-19.29732c1.3883,-10.18084 2.5452,-18.78827 2.5452,-19.11221c0,-0.41648 -1.11064,-0.55532 -3.97978,-0.55532h-3.97977l2.31383,-2.91543c2.175,-2.68404 2.45266,-2.86915 4.39628,-3.00797c2.31383,-0.13882 2.31383,-0.13882 2.86915,-4.85904z"/><path d="M253.66158,153.85376h3.51701c1.94361,0 3.42447,0.1851 3.33191,0.41648c-0.04627,0.23139 -1.89734,3.74839 -4.02606,7.86701l-3.88723,7.45052h-3.42447h-3.37819l3.9335,-7.867z"/><path d="M187.94889,154.77928h24.29518h24.29518v6.38616v6.38617l-2.9617,2.175l-2.9617,2.17499h-7.45053c-6.29361,0 -7.45051,0.09256 -7.45051,0.69416c0,0.60159 1.43457,0.69414 10.18084,0.69414h10.18084v2.31384v2.31382h-10.18084h-10.18084v1.15691v1.15691h10.87498h10.87499v2.31383v2.31383h-25.96114h-25.91485l2.45265,-2.31383l2.45265,-2.26755l8.93137,-0.04628h8.88509v-1.15691v-1.15691h-10.50477h-10.50477l2.26755,-2.31382l2.26755,-2.31384h8.23722c7.03403,0 8.23722,-0.09256 8.23722,-0.69414c0,-0.60159 -1.43457,-0.69416 -10.18083,-0.69416h-10.18084v-8.56116zM208.31056,159.8697h-6.7101h-6.7101v3.47074v3.47074h6.7101h6.7101v-3.47074zM229.13501,159.8697h-6.7101h-6.7101v3.47074v3.47074h6.7101h6.7101v-3.47074z"/><path d="M197.66697,160.79522h3.70213h3.70211v1.7585v1.75851l-3.33191,0.7867c-1.85106,0.46276 -3.51701,0.7867 -3.70212,0.7867c-0.23139,0 -0.37021,-1.15691 -0.37021,-2.54521z"/><path d="M218.95417,160.79522h3.7484h3.70213l-0.13883,1.71223c-0.13882,1.71223 -0.1851,1.75851 -2.91542,2.54521c-4.39628,1.20318 -4.39627,1.20319 -4.39627,-1.71223z"/><path d="M127.55801,155.75108l23.97124,-0.04627h23.92497v3.00797v3.00798h-15.73403h-15.73402l-3.93351,5.87712l-3.9335,5.9234l19.20477,0.13882l19.20476,0.09256v12.58722v12.63349l-3.33191,3.33192l-3.33192,3.37818h-19.34359h-19.34359v-11.33775v-11.29147l-3.51701,-0.13883l-3.47074,-0.13883l6.94148,-10.27338c3.84096,-5.64574 6.98776,-10.41223 6.98776,-10.50478c0,-0.13882 -2.82286,-0.32394 -6.24733,-0.37021l-6.29362,-0.13883l1.98988,-2.86914zM168.04998,179.76861h-15.9654h-15.96541v9.94944v9.94947h15.96541h15.9654v-9.94947z"/><path d="M284.06526,155.70481h14.94732v3.00797v3.00798h-17.39998h-17.39997l1.75851,-2.22127c0.92554,-1.20318 2.03617,-2.54521 2.40638,-3.00797c0.64787,-0.74043 1.98989,-0.7867 15.68775,-0.7867z"/><path d="M314.05246,156.21385l9.16275,-0.04627h9.11647v3.00797v3.00798h-11.56913c-9.62552,0 -11.56913,-0.09256 -11.2452,-0.64787c0.18511,-0.32394 1.29574,-1.66595 2.45265,-2.9617z"/><path d="M254.21688,170.51331h3.47074h3.47074l-3.51701,6.66382c-1.94362,3.70213 -3.51702,6.94149 -3.51702,7.17288c0,0.27766 0.64787,0.50904 1.3883,0.50904h1.38831v10.87498v10.87498h-3.23936h-3.23937v-9.71806v-9.71808h-2.59148h-2.59149l2.40638,-4.5351c1.34202,-2.45265 3.37819,-6.20106 4.48883,-8.32978z"/><path d="M267.17432,172.36437h16.61328h16.61328v3.00797v3.00798h-4.16489h-4.1649v14.11435v14.11434h-9.99573c-7.82073,0 -9.90318,-0.13882 -9.62552,-0.60158c0.18511,-0.27766 1.29574,-1.66597 2.40638,-3.00799l2.03617,-2.40637h4.34999h4.34999v-11.10637v-11.10636l-11.52286,-0.09255l-11.52286,-0.13882l2.31382,-2.91543z"/><path d="M312.47905,172.82713h10.36595h10.41222v3.00797v3.00798h-6.7101c-6.57126,0 -6.71009,0 -6.94148,1.01809c-0.41649,1.89734 -3.00798,17.86273 -3.00798,18.60316c0,0.64787 0.69416,0.74043 4.62765,0.74043h4.62765v-6.47871v-6.47871h3.00797h3.00798v6.80265v6.80265l-2.63777,2.68404l-2.63776,2.68405h-8.97765h-8.93138l0.27766,-1.52713c0.13882,-0.7867 1.15692,-6.7101 2.26756,-13.14254l1.98989,-11.66168l-2.73031,-0.13884l-2.68404,-0.13882l2.31383,-2.91542z"/><path d="M187.48613,186.24732h3.51701h3.47074l-0.13882,1.89733l-0.13882,1.94361l-3.33192,1.24947l-3.37819,1.29574v-3.19308z"/><path d="M200.86005,186.24732h3.47074h3.51701v3.19308v3.19308l-3.33192,-1.29574c-3.37819,-1.29574 -3.37819,-1.29575 -3.51701,-3.19309z"/><path d="M215.25204,186.24732h3.47074h3.47074v3.23936v3.23936l-2.40638,-0.9718c-1.34202,-0.55532 -2.91543,-1.15691 -3.47074,-1.38831c-0.87926,-0.32394 -1.06436,-0.74041 -1.06436,-2.26754z"/><path d="M229.13501,186.24732h3.23936h3.23936v3.00798c0,1.66595 -0.13884,3.00797 -0.32394,3.00797c-0.23139,0 -1.66595,-0.46277 -3.23936,-1.01809l-2.91541,-1.06436v-1.94361z"/><path d="M212.01269,191.80051c3.14681,0 3.23936,0.04627 3.23936,1.15691v1.15691h10.18084h10.18084v2.54521v2.54521h-10.18084h-10.18084v1.15691v1.15691h11.33775h11.33775v2.54522v2.5452h-26.37762c-14.53083,0 -26.37763,-0.13882 -26.37763,-0.27766c0,-0.1851 0.74043,-1.29574 1.66595,-2.54521l1.66595,-2.26755h10.13456h10.13457v-1.15691v-1.15691h-10.68988h-10.6436l1.7585,-2.54521l1.75851,-2.54521h8.93138h8.88509v-1.15691c0,-1.11064 0.09256,-1.15691 3.23936,-1.15691z"/></g></g></svg>