<svg id="图层_1" data-name="图层 1" xmlns="http://www.w3.org/2000/svg" viewBox="0 0 501.5 166.93"><text transform="translate(115.37 120.9)" style="font-size:83.41725158691406px;font-family:ComicSansMS, Comic Sans MS">ShowIt</text><text transform="translate(114.57 149.12)" style="font-size:16.979490280151367px;font-family:SourceHanSansSC-Light-GBpc-EUC-H, Source Han Sans SC">轻量级<tspan x="50.94" y="0" style="letter-spacing:-0.026974179138663578em">C</tspan><tspan x="61.13" y="0" style="letter-spacing:-0.011013977196277346em">O</tspan><tspan x="73.27" y="0" style="letter-spacing:0.00002875712061691213em">VID-19防疫码收集与整理平台</tspan></text><rect x="366.57" width="134.93" height="51.56" rx="23.46" style="fill:#d2f3ff"/><text transform="translate(379.07 37.81)" style="font-size:43.74570846557617px;fill:#00b0ff;font-family:zihun100hao-fangfangxianfengti">BETA</text><path d="M59.21,198.23c.26.28.53.54.82.8H80.11v-3.78H70.89a8.16,8.16,0,0,1-8.15-8.15v-9H59.21Z" transform="translate(-49.25 -56.54)" style="fill:#00b0ff"/><path d="M95.37,146.27H91.85v5.59a9.49,9.49,0,0,1-.35,2.57h3.88a7.33,7.33,0,0,1,1.41.14,10.48,10.48,0,0,1-.38-2.7V146.2A8.79,8.79,0,0,1,95.37,146.27Z" transform="translate(-49.25 -56.54)" style="fill:#00b0ff"/><path d="M96.41,195.16a8.42,8.42,0,0,1-1,.07H91.85v5.58a11.2,11.2,0,0,1-.09,1.3h4.65Z" transform="translate(-49.25 -56.54)" style="fill:#00b0ff"/><rect x="21.65" y="121.58" width="9.2" height="8.97" style="fill:#00b0ff"/><path d="M91.85,127.35v10.77h3.52l0-24.49-24.48,0v3.77h11A10,10,0,0,1,91.85,127.35Z" transform="translate(-49.25 -56.54)" style="fill:#00b0ff"/><path d="M91.85,176.32v10.76h3.54l0-24.49-24.48,0v3.76h11A10,10,0,0,1,91.85,176.32Z" transform="translate(-49.25 -56.54)" style="fill:#00b0ff"/><path d="M108.17,150.06h20.9v-3.79h-9.23a8.16,8.16,0,0,1-8.15-8.14v-9h-3.5Z" transform="translate(-49.25 -56.54)" style="fill:#00b0ff"/><rect x="21.62" y="72.62" width="9.22" height="8.97" style="fill:#00b0ff"/><path d="M159.34,110.87A12.33,12.33,0,0,0,147,98.57l-78.9,0a12.36,12.36,0,0,0-12.31,12.32v6.62a10.31,10.31,0,0,1,1.58-.13h5.3v-3.77a8.17,8.17,0,0,1,8.15-8.16h24.5a8.16,8.16,0,0,1,8.15,8.15v4.22a9.59,9.59,0,0,1,2.85-.43h5.31v-3.8a8.16,8.16,0,0,1,8.15-8.15h24.5a8.16,8.16,0,0,1,8.16,8.14V138.1a8.17,8.17,0,0,1-8.15,8.15h-3.52v5.61a10,10,0,0,1-9.94,9.95H106.36a9.76,9.76,0,0,1-2.93-.45,8.14,8.14,0,0,1,.1,1.22v12.09a5.88,5.88,0,0,1,4.64,5.74v21.7h4.57v-8.26a4.07,4.07,0,0,1-1-2.7V166.66a4.08,4.08,0,0,1,8.16,0v8a5.89,5.89,0,0,1,4.63,5.74V202.1h4.57v-8.26a4.05,4.05,0,0,1-1-2.7V166.66a4.08,4.08,0,0,1,8.15-.15,5.88,5.88,0,0,1,4.65,5.74v29.84h6.27a12.35,12.35,0,0,0,12.3-12.32Zm-10.91,84.34a4.09,4.09,0,0,1-4.09-4.08V158.49a4.08,4.08,0,0,1,8.16,0v32.65A4.07,4.07,0,0,1,148.43,195.21Z" transform="translate(-49.25 -56.54)" style="fill:#00b0ff"/><rect x="70.58" y="72.62" width="9.22" height="8.95" style="fill:#00b0ff"/><path d="M140.81,127.35v10.74h3.52l0-24.5-24.49,0v3.79h11A10,10,0,0,1,140.81,127.35Z" transform="translate(-49.25 -56.54)" style="fill:#00b0ff"/><path d="M55.85,161.68v4.82a9.8,9.8,0,0,1,1.54-.13h5.34V162.6a6.85,6.85,0,0,1,0-.79H57.4A9.82,9.82,0,0,1,55.85,161.68Z" transform="translate(-49.25 -56.54)" style="fill:#00b0ff"/><path d="M59.21,150.06h20.9v-3.77H70.87a8.14,8.14,0,0,1-8.15-8.14v-9h-3.5Z" transform="translate(-49.25 -56.54)" style="fill:#00b0ff"/><path d="M115.17,109.56l-5.39,8a2.09,2.09,0,0,0,.32,2.7,49,49,0,0,0,41.31,12.48c.44-4.3.89-8.62,1.23-12.94A41.07,41.07,0,0,1,115.17,109.56Z" transform="translate(-49.25 -56.54)" style="fill:#7d9542"/><path d="M177.19,117.6l-5.39-8c-.94.9-1.92,1.75-2.93,2.54a40.65,40.65,0,0,1-16.23,7.74c-.34,4.32-.79,8.64-1.23,12.94a48.7,48.7,0,0,0,25.47-12.48h0A2.09,2.09,0,0,0,177.19,117.6Z" transform="translate(-49.25 -56.54)" style="fill:#93c644"/><path d="M135.75,128.23l-1.21,4.38a51.24,51.24,0,0,0,5.23.68l-.8-4.11Z" transform="translate(-49.25 -56.54)" style="fill:#617832"/><path d="M176.88,120.3q-1.6,1.5-3.32,2.83a2.1,2.1,0,0,0,0-2.26l-5.47-8.14.82-.63c1-.79,2-1.64,2.93-2.54l5.39,8a2.09,2.09,0,0,1-.31,2.7Z" transform="translate(-49.25 -56.54)" style="fill:#86bc3d"/><path d="M174.5,122.38a46.78,46.78,0,0,1-4,2.93L169,120.84s-4.18-4.68-4.13-4.82l3.14-3.4Z" transform="translate(-49.25 -56.54)" style="fill:#76a030"/><path d="M124.37,116l-7.17,9.78c-1.2-.77-2.38-1.59-3.52-2.47l5.69-11.07Z" transform="translate(-49.25 -56.54)" style="fill:#617832"/><path d="M164.85,128.54q-2.07,1-4.21,1.8l-4.88-11.58,4.86-2.74Z" transform="translate(-49.25 -56.54)" style="fill:#76a030"/><path d="M150.8,119.86l-8.7,1.78.55,6.58,4,1.23,1.67,3.73c1-.1,2-.23,3-.4.28-2.74.57-5.5.83-8.25Z" transform="translate(-49.25 -56.54)" style="fill:#617832"/><path d="M152.24,124.53c-.26,2.75-.55,5.51-.83,8.25,1.06-.17,2.12-.38,3.17-.62Z" transform="translate(-49.25 -56.54)" style="fill:#76a030"/><path d="M134.92,120l-5,11.52a48.13,48.13,0,0,1-7.33-2.77l9.57-9.57Z" transform="translate(-49.25 -56.54)" style="fill:#617832"/><path d="M172.55,110.68l-3.33-5c-.93.88-1.9,1.7-2.89,2.47A37.24,37.24,0,0,1,153,114.71c-.12,2.34-.29,4.68-.49,7A40.92,40.92,0,0,0,168.87,114,39,39,0,0,0,172.55,110.68Z" transform="translate(-49.25 -56.54)" style="fill:#d6e7b1"/><path d="M117.76,105.71l-3.34,5a41.09,41.09,0,0,0,38.07,11c.2-2.34.37-4.68.49-7A37.48,37.48,0,0,1,117.76,105.71Z" transform="translate(-49.25 -56.54)" style="fill:#b2b894"/><path d="M172.55,110.68,145.23,69.94a2.09,2.09,0,0,0-3.48,0l0,0c3.49,5,6.84,10.08,8.62,16.05,0,.15.09.3.13.45L168.87,114A39,39,0,0,0,172.55,110.68Z" transform="translate(-49.25 -56.54)" style="fill:#b5d575"/><path d="M141.71,70l-1.55,2.32a2,2,0,0,1,1.39.89l8.91,13.29c0-.15-.08-.3-.13-.45C148.55,80.07,145.2,75,141.71,70Z" transform="translate(-49.25 -56.54)" style="fill:#b5d575"/><path d="M150.33,86c-1.78-6-5.13-11-8.62-16.05l-1.55,2.32L117,106.91a37.53,37.53,0,0,0,35.91,9.81C153.51,106.47,153.29,96.21,150.33,86Z" transform="translate(-49.25 -56.54)" style="fill:#b35943"/><path d="M170,106.91l-24.79-37a2.09,2.09,0,0,0-3.48,0l0,0c3.49,5,6.84,10.08,8.62,16.05,3,10.17,3.18,20.43,2.53,30.68a37.21,37.21,0,0,0,13.47-6.57A36.11,36.11,0,0,0,170,106.91Z" transform="translate(-49.25 -56.54)" style="fill:#ed794d"/><path d="M141.71,70l-1.55,2.32a2,2,0,0,1,1.39.89l8.91,13.29c0-.15-.09-.3-.13-.45C148.55,80.07,145.2,75,141.71,70Z" transform="translate(-49.25 -56.54)" style="fill:#af4938"/><path d="M170,106.91l-24.79-37a2.09,2.09,0,0,0-3.48,0l0,0c3.49,5,6.84,10.08,8.62,16.05,0,.15.09.3.13.45l15.87,23.66A36.11,36.11,0,0,0,170,106.91Z" transform="translate(-49.25 -56.54)" style="fill:#eb683d"/><path d="M137.89,95a2.71,2.71,0,0,1-.69,1.77,1.37,1.37,0,0,1-2,0,2.6,2.6,0,0,1,0-3.53,1.37,1.37,0,0,1,2,0,2.68,2.68,0,0,1,.69,1.76Z" transform="translate(-49.25 -56.54)" style="fill:#4f484e"/><path d="M151.82,93.27a1.37,1.37,0,0,0-2,0,2.6,2.6,0,0,0,0,3.53,1.37,1.37,0,0,0,2,0,3,3,0,0,0,.57-1c-.1-.74-.22-1.49-.34-2.23Z" transform="translate(-49.25 -56.54)" style="fill:#4f484e"/><path d="M152.05,93.57c.12.74.24,1.49.34,2.23a2.48,2.48,0,0,0,.12-.77A2.63,2.63,0,0,0,152.05,93.57Z" transform="translate(-49.25 -56.54)" style="fill:#786d78"/><path d="M142.47,83.54a2.59,2.59,0,0,0,0,3.52,1.37,1.37,0,0,0,2,0,2.59,2.59,0,0,0,0-3.52A1.37,1.37,0,0,0,142.47,83.54Z" transform="translate(-49.25 -56.54)" style="fill:#4f484e"/><path d="M130.58,104.77a2.7,2.7,0,0,1-.69,1.76,1.37,1.37,0,0,1-2,0,2.6,2.6,0,0,1,0-3.53,1.37,1.37,0,0,1,2,0A2.71,2.71,0,0,1,130.58,104.77Z" transform="translate(-49.25 -56.54)" style="fill:#4f484e"/><path d="M142.47,103a2.6,2.6,0,0,0,0,3.53,1.37,1.37,0,0,0,2,0,2.6,2.6,0,0,0,0-3.53A1.37,1.37,0,0,0,142.47,103Z" transform="translate(-49.25 -56.54)" style="fill:#4f484e"/><path d="M159.82,104.77a2.7,2.7,0,0,1-.69,1.76,1.37,1.37,0,0,1-2,0,2.6,2.6,0,0,1,0-3.53,1.37,1.37,0,0,1,2,0,2.71,2.71,0,0,1,.69,1.77Z" transform="translate(-49.25 -56.54)" style="fill:#786d78"/><path d="M57.41,151.86V127.37H81.89v24.49ZM81.9,119.21H57.4a8.16,8.16,0,0,0-8.15,8.15v24.5A8.16,8.16,0,0,0,57.4,160H81.9a8.16,8.16,0,0,0,8.15-8.15v-24.5A8.16,8.16,0,0,0,81.9,119.21ZM57.41,200.82V176.33H81.89v24.49ZM81.9,168.17H57.4a8.16,8.16,0,0,0-8.15,8.15v24.5A8.16,8.16,0,0,0,57.4,209H81.9a8.16,8.16,0,0,0,8.15-8.15v-24.5A8.16,8.16,0,0,0,81.9,168.17Zm24.47-16.31V127.37h24.48v24.49Zm24.49-32.65h-24.5a8.16,8.16,0,0,0-8.15,8.15v24.5a8.16,8.16,0,0,0,8.15,8.15h24.5a8.16,8.16,0,0,0,8.15-8.15v-24.5A8.16,8.16,0,0,0,130.86,119.21Zm-12.25,57.12a4.08,4.08,0,0,0-4.08,4.08v24.48a4.08,4.08,0,1,0,8.16,0V180.41a4.08,4.08,0,0,0-4.08-4.08m-16.32,0a4.08,4.08,0,0,0-4.08,4.08v24.48a4.08,4.08,0,1,0,8.16,0V180.41a4.08,4.08,0,0,0-4.08-4.08m32.64-8.16a4.08,4.08,0,0,0-4.08,4.08v32.64a4.08,4.08,0,1,0,8.16,0V172.25a4.08,4.08,0,0,0-4.08-4.08" transform="translate(-49.25 -56.54)" style="fill:#00b0ff"/></svg>