<svg width="24" height="19" viewBox="0 0 24 19" fill="none" xmlns="http://www.w3.org/2000/svg">
<g clip-path="url(#clip0_1261_2470)">
<path d="M24.0001 6.26453C23.9745 6.95985 23.9554 7.59253 23.6931 8.19389C23.5396 8.54469 23.2518 8.65118 22.9001 8.6637C22.5611 8.67623 22.3308 8.51963 22.1837 8.23774C22.043 7.96212 21.9919 7.6677 22.0622 7.36702C22.3692 5.97638 22.0622 4.70475 21.2819 3.53962C20.7447 2.73154 19.9452 2.26173 18.9987 2.03622C18.3655 1.88588 17.7131 1.84203 17.0607 1.89841C16.7601 1.92346 16.4659 1.9172 16.1845 1.79818C15.9671 1.70422 15.82 1.54761 15.7752 1.30957C15.6985 0.889874 15.8392 0.43259 16.3124 0.219608C16.7729 0.0128909 17.259 -0.0246941 17.7451 0.0128909C19.8045 0.169495 21.5314 0.990101 22.8617 2.54988C23.5588 3.36422 23.9042 4.32264 23.9554 5.38128C23.9618 5.70154 23.9809 6.01475 24.0001 6.26453ZM20.8534 6.37102C20.8598 6.62785 20.7383 7.04129 20.4377 7.40461C20.2202 7.66144 19.926 7.71782 19.6126 7.6677C19.3696 7.63012 19.2673 7.43593 19.2097 7.21668C19.1586 7.04129 19.1777 6.85963 19.2033 6.68423C19.2481 6.35223 19.2353 6.02023 19.1202 5.70075C18.8963 5.09939 18.4102 4.84256 17.7963 4.77366C17.6044 4.7486 17.4061 4.76113 17.2079 4.73607C16.8305 4.69222 16.5811 4.4166 16.5619 4.03449C16.5427 3.69622 16.7665 3.42686 17.1311 3.33916C18.0201 3.12618 18.8707 3.18882 19.619 3.76513C20.3993 4.37275 20.8534 5.16204 20.8534 6.37102ZM12.1041 10.7998C11.2726 10.0982 10.2813 9.86016 9.20679 9.95412C7.94682 10.0669 6.89153 10.5805 6.12404 11.5891C5.24143 12.7542 5.2798 14.2451 6.23277 15.2661C6.98746 16.0742 7.95962 16.4 9.13004 16.425C10.422 16.3812 11.5924 15.9176 12.4622 14.8527C13.5047 13.5498 13.364 11.8584 12.1041 10.7998ZM9.13643 14.4079C8.99333 14.5481 8.83343 14.6538 8.65995 14.7298C8.46248 14.8175 8.24582 14.8644 8.01078 14.8715C7.57427 14.8817 7.18173 14.7047 6.96348 14.4032C6.92031 14.3445 6.88273 14.2819 6.85315 14.2138C6.79239 14.0697 6.76521 13.9311 6.76441 13.798C6.76201 13.5067 6.89473 13.2405 7.11538 12.9985C7.33923 12.7542 7.62704 12.6101 7.95322 12.5412C8.20905 12.4911 8.46488 12.4911 8.71431 12.5725C9.08607 12.6916 9.3347 12.9374 9.44343 13.2303C9.58493 13.603 9.49619 14.0525 9.13643 14.4079ZM10.0638 12.9735C9.88873 12.9735 9.73763 12.8967 9.64889 12.7808C9.58973 12.7064 9.55615 12.6156 9.55855 12.5162C9.56255 12.3533 9.66008 12.203 9.80399 12.1027C9.91111 12.026 10.0446 11.979 10.1877 11.9782C10.1917 11.9782 10.1949 11.9774 10.1989 11.9774C10.1997 11.9774 10.2005 11.9774 10.2013 11.9774C10.2029 11.9774 10.2037 11.9774 10.2053 11.9774C10.4931 11.9774 10.717 12.1842 10.7106 12.4347C10.7082 12.4966 10.6914 12.5561 10.6642 12.6133C10.5723 12.8208 10.33 12.9789 10.0638 12.9735ZM20.3929 10.3488C19.9964 9.84137 19.4464 9.55322 18.8388 9.35276C18.487 9.23374 18.1096 9.20242 17.7515 9.10846C17.4381 9.02703 17.3741 8.74514 17.5916 8.51337C17.7643 8.3317 17.9114 8.13125 17.9881 7.89321C18.3719 6.72808 17.5596 5.48777 16.3124 5.37502C14.899 5.24973 13.5623 5.50657 12.2895 6.11419C12.2 6.15804 12.1104 6.21442 12.0081 6.22068C11.7907 6.23947 11.6883 6.13925 11.7139 5.92626C11.7331 5.75713 11.8035 5.60679 11.8674 5.45645C12.1104 4.87388 12.1168 4.28505 11.861 3.71501C11.5348 2.98837 10.9081 2.68769 10.1342 2.6689C9.0405 2.64384 8.04276 2.98211 7.10898 3.52082C5.4333 4.49177 3.99426 5.73834 2.71511 7.17283C1.75575 8.24401 0.898723 9.39035 0.387064 10.7371C-0.322863 12.6039 -0.0670333 14.339 1.24409 15.8863C2.01798 16.8009 3.01571 17.4147 4.11578 17.8846C5.98973 18.6864 7.96601 18.9871 9.88473 18.9996C11.3494 18.9871 12.6797 18.843 13.978 18.511C15.6153 18.0975 17.1439 17.4586 18.455 16.3937C19.715 15.3726 20.5592 14.101 20.8662 12.5162C21.0197 11.7394 20.8982 10.994 20.3929 10.3488ZM16.5939 13.7565C15.9095 14.8527 14.9054 15.5856 13.7478 16.1369C12.2831 16.8259 10.7354 17.1329 9.07887 17.1516C7.72297 17.1391 6.37347 16.9136 5.11991 16.2747C4.93523 16.1799 4.75535 16.0781 4.58347 15.9677C4.06541 15.6381 3.61771 15.2293 3.29073 14.6961C2.65115 13.6625 2.65755 12.5976 3.22038 11.5327C3.67447 10.662 4.378 10.0168 5.19666 9.49057C6.52058 8.63865 7.99159 8.18137 9.55855 7.9997C10.7162 7.86816 11.861 7.90574 12.9931 8.16257C13.7254 8.32779 14.4185 8.56818 15.0461 8.93072C15.4394 9.15701 15.8072 9.43185 16.1414 9.76855C16.1454 9.77246 16.1486 9.77559 16.1526 9.77873L16.1534 9.77951C16.155 9.78108 16.1574 9.78343 16.1589 9.78499C17.259 10.9 17.4189 12.4285 16.5939 13.7565Z" fill="#EAEAEA"/>
</g>
<defs>
<clipPath id="clip0_1261_2470">
<rect width="24" height="19" fill="white"/>
</clipPath>
</defs>
</svg>
