<svg id="图层_1" data-name="图层 1" xmlns="http://www.w3.org/2000/svg" viewBox="0 0 549.38 204.6"><text transform="translate(141.47 129.21)" style="font-size:99.32901000976562px;font-family:ComicSansMS, Comic Sans MS">Spark</text><text transform="translate(147.14 183.39)" style="font-size:20.21830940246582px;font-family:SourceHanSansSC-Light-GBpc-EUC-H, Source Han Sans SC">西瓜教育云服务功能载体平台</text><rect x="388.72" width="160.66" height="61.39" rx="27.94" style="fill:#d2f3ff"/><text transform="translate(403.6 45.02)" style="font-size:52.09016036987305px;fill:#00b0ff;font-family:zihun100hao-fangfangxianfengti">BETA</text><path d="M98.42,112.94,92,122.51a2.5,2.5,0,0,0,.38,3.22,58.34,58.34,0,0,0,49.19,14.86c.52-5.13,1.07-10.27,1.47-15.42A48.89,48.89,0,0,1,98.42,112.94Z" transform="translate(-25.31 -47.69)" style="fill:#7d9542"/><path d="M172.27,122.51l-6.42-9.57c-1.12,1.07-2.29,2.07-3.48,3A48.44,48.44,0,0,1,143,125.17c-.4,5.15-.95,10.29-1.47,15.42a58.21,58.21,0,0,0,30.33-14.86h0A2.5,2.5,0,0,0,172.27,122.51Z" transform="translate(-25.31 -47.69)" style="fill:#93c644"/><path d="M122.92,135.16l-1.44,5.22a56.74,56.74,0,0,0,6.23.8l-1-4.89Z" transform="translate(-25.31 -47.69)" style="fill:#617832"/><path d="M171.9,125.73c-1.28,1.18-2.6,2.31-4,3.36a2.48,2.48,0,0,0-.06-2.69l-6.5-9.7c.33-.24.65-.49,1-.75,1.19-.94,2.36-1.94,3.48-3l6.42,9.57a2.5,2.5,0,0,1-.37,3.22Z" transform="translate(-25.31 -47.69)" style="fill:#86bc3d"/><path d="M169.07,128.19a54.56,54.56,0,0,1-4.74,3.5l-1.84-5.33s-5-5.57-4.91-5.74l3.73-4Z" transform="translate(-25.31 -47.69)" style="fill:#76a030"/><path d="M109.37,120.62l-8.54,11.65q-2.14-1.36-4.19-2.94l6.77-13.18Z" transform="translate(-25.31 -47.69)" style="fill:#617832"/><path d="M157.58,135.54c-1.65.79-3.32,1.51-5,2.14l-5.82-13.79,5.8-3.27Z" transform="translate(-25.31 -47.69)" style="fill:#76a030"/><path d="M140.85,125.19l-10.37,2.13.66,7.83,4.81,1.47,2,4.44c1.22-.12,2.43-.28,3.64-.47.33-3.27.68-6.55,1-9.84Z" transform="translate(-25.31 -47.69)" style="fill:#617832"/><path d="M142.55,130.75c-.3,3.29-.65,6.57-1,9.84,1.27-.21,2.52-.46,3.77-.74Z" transform="translate(-25.31 -47.69)" style="fill:#76a030"/><path d="M121.93,125.36l-6,13.7a57.1,57.1,0,0,1-8.72-3.29l11.39-11.39Z" transform="translate(-25.31 -47.69)" style="fill:#617832"/><path d="M166.75,114.27l-4-5.92a45,45,0,0,1-3.44,2.94,44.46,44.46,0,0,1-15.9,7.78c-.14,2.78-.35,5.57-.59,8.35a48.61,48.61,0,0,0,19.52-9.26A49.76,49.76,0,0,0,166.75,114.27Z" transform="translate(-25.31 -47.69)" style="fill:#d6e7b1"/><path d="M101.5,108.35l-4,5.92a48.9,48.9,0,0,0,45.32,13.15c.24-2.78.45-5.57.59-8.35A44.69,44.69,0,0,1,101.5,108.35Z" transform="translate(-25.31 -47.69)" style="fill:#b2b894"/><path d="M166.75,114.27,134.21,65.75a2.49,2.49,0,0,0-4.14,0l0,.07c4.15,6,8.14,12,10.27,19.11l.15.53,21.93,32.7A49.76,49.76,0,0,0,166.75,114.27Z" transform="translate(-25.31 -47.69)" style="fill:#b5d575"/><path d="M130,65.82l-1.84,2.75a2.47,2.47,0,0,1,1.65,1.07l10.61,15.82-.15-.53C138.16,77.81,134.17,71.78,130,65.82Z" transform="translate(-25.31 -47.69)" style="fill:#b5d575"/><path d="M140.29,84.93c-2.13-7.12-6.12-13.15-10.27-19.11l-1.84,2.75-27.64,41.21a44.64,44.64,0,0,0,42.76,11.67C144.07,109.26,143.81,97,140.29,84.93Z" transform="translate(-25.31 -47.69)" style="fill:#b35943"/><path d="M163.73,109.78l-29.52-44a2.49,2.49,0,0,0-4.14,0l0,.07c4.15,6,8.14,12,10.27,19.11,3.52,12.1,3.78,24.33,3,36.52a44.41,44.41,0,0,0,20.43-11.67Z" transform="translate(-25.31 -47.69)" style="fill:#ed794d"/><path d="M130,65.82l-1.84,2.75a2.47,2.47,0,0,1,1.65,1.07l10.61,15.82-.15-.53C138.16,77.81,134.17,71.78,130,65.82Z" transform="translate(-25.31 -47.69)" style="fill:#af4938"/><path d="M163.73,109.78l-29.52-44a2.49,2.49,0,0,0-4.14,0l0,.07c4.15,6,8.14,12,10.27,19.11l.15.53,18.9,28.18A44.1,44.1,0,0,0,163.73,109.78Z" transform="translate(-25.31 -47.69)" style="fill:#eb683d"/><path d="M125.47,95.63a3.15,3.15,0,0,1-.82,2.1,1.62,1.62,0,0,1-2.43,0,3.09,3.09,0,0,1,0-4.19,1.62,1.62,0,0,1,2.43,0,3.14,3.14,0,0,1,.82,2.09Z" transform="translate(-25.31 -47.69)" style="fill:#4f484e"/><path d="M142.06,93.54a1.62,1.62,0,0,0-2.43,0,3.06,3.06,0,0,0,0,4.19,1.62,1.62,0,0,0,2.43,0,3.29,3.29,0,0,0,.68-1.19c-.13-.88-.26-1.76-.41-2.64A2.42,2.42,0,0,0,142.06,93.54Z" transform="translate(-25.31 -47.69)" style="fill:#4f484e"/><path d="M142.33,93.9c.15.88.28,1.76.41,2.64a3,3,0,0,0-.41-2.64Z" transform="translate(-25.31 -47.69)" style="fill:#786d78"/><path d="M130.92,82a3.09,3.09,0,0,0,0,4.19,1.62,1.62,0,0,0,2.43,0,3.09,3.09,0,0,0,0-4.19A1.62,1.62,0,0,0,130.92,82Z" transform="translate(-25.31 -47.69)" style="fill:#4f484e"/><path d="M116.77,107.22a3.16,3.16,0,0,1-.83,2.1,1.61,1.61,0,0,1-2.42,0,3.06,3.06,0,0,1,0-4.19,1.61,1.61,0,0,1,2.42,0A3.15,3.15,0,0,1,116.77,107.22Z" transform="translate(-25.31 -47.69)" style="fill:#4f484e"/><path d="M130.92,105.13a3.09,3.09,0,0,0,0,4.19,1.62,1.62,0,0,0,2.43,0,3.09,3.09,0,0,0,0-4.19A1.62,1.62,0,0,0,130.92,105.13Z" transform="translate(-25.31 -47.69)" style="fill:#4f484e"/><path d="M151.58,107.22a3.15,3.15,0,0,1-.82,2.1,1.62,1.62,0,0,1-2.43,0,3.09,3.09,0,0,1,0-4.19,1.62,1.62,0,0,1,2.43,0,3.14,3.14,0,0,1,.82,2.09Z" transform="translate(-25.31 -47.69)" style="fill:#786d78"/><path d="M92.12,190.34a1.58,1.58,0,0,0,1.55-1.42c2.2-17,4.59-19.54,21.37-21.4a1.55,1.55,0,0,0,0-3.1C98.26,162.56,95.87,160,93.67,143a1.56,1.56,0,0,0-1.55-1.4,1.51,1.51,0,0,0-1.51,1.4c-2.2,17-4.62,19.54-21.38,21.4a1.55,1.55,0,0,0,0,3.1c16.73,2.2,19,4.46,21.38,21.4a1.53,1.53,0,0,0,1.51,1.42Z" transform="translate(-25.31 -47.69)" style="fill:#00b0ff"/><path d="M92.12,131.1A189.05,189.05,0,0,1,89,111.67c-.21-2.67-.34-2.54-.59-6a14.14,14.14,0,0,1,.08-3.51,3.76,3.76,0,0,1,1.1-2.1,3,3,0,0,1,2.11-.87h.76a3,3,0,0,1,2.11.87,3.71,3.71,0,0,1,1.11,2.1,14.14,14.14,0,0,1,.08,3.51c-.25,3.48-.38,3.35-.59,6a187.07,187.07,0,0,1-3.09,19.43" transform="translate(-25.31 -47.69)" style="fill:#00b0ff"/><path d="M80.2,154.06c-11.28-8.7-19.72-15.74-23.67-19.31-3.11-2.8-3.06-2.58-7.09-6.25a35.48,35.48,0,0,1-3.82-3.93,7.42,7.42,0,0,1-1.54-3.11,2.51,2.51,0,0,1,.53-2.45l.54-.54a2.5,2.5,0,0,1,2.45-.53,7.42,7.42,0,0,1,3.11,1.54,35.48,35.48,0,0,1,3.93,3.82c3.67,4,3.44,4,6.25,7.09,3.57,4,10.61,12.39,19.31,23.67" transform="translate(-25.31 -47.69)" style="fill:#00b0ff"/><path d="M80.2,177.9c-8.7,11.29-15.74,19.73-19.31,23.68-2.81,3.11-2.58,3.06-6.25,7.08a34.35,34.35,0,0,1-3.93,3.82A7.34,7.34,0,0,1,47.6,214a2.5,2.5,0,0,1-2.45-.53l-.54-.54a2.51,2.51,0,0,1-.53-2.45,7.42,7.42,0,0,1,1.54-3.11,34.29,34.29,0,0,1,3.82-3.93c4-3.68,4-3.45,7.09-6.25,3.95-3.57,12.39-10.61,23.67-19.32" transform="translate(-25.31 -47.69)" style="fill:#00b0ff"/><path d="M104,177.9c11.29,8.71,19.73,15.75,23.68,19.32,3.1,2.8,3.06,2.57,7.08,6.25a33.23,33.23,0,0,1,3.82,3.93,7.34,7.34,0,0,1,1.55,3.11,2.54,2.54,0,0,1-.53,2.45l-.54.54a2.51,2.51,0,0,1-2.45.53,7.34,7.34,0,0,1-3.11-1.55,33.23,33.23,0,0,1-3.93-3.82c-3.68-4-3.45-4-6.25-7.08-3.57-4-10.61-12.39-19.32-23.68" transform="translate(-25.31 -47.69)" style="fill:#00b0ff"/><path d="M104,154.06c8.71-11.28,15.75-19.72,19.32-23.67,2.8-3.11,2.57-3.06,6.25-7.09a34.29,34.29,0,0,1,3.93-3.82,7.42,7.42,0,0,1,3.11-1.54,2.51,2.51,0,0,1,2.45.53l.54.54a2.54,2.54,0,0,1,.53,2.45,7.34,7.34,0,0,1-1.55,3.11,34.35,34.35,0,0,1-3.82,3.93c-4,3.67-4,3.45-7.08,6.25-4,3.57-12.39,10.61-23.68,19.31" transform="translate(-25.31 -47.69)" style="fill:#00b0ff"/><path d="M57.24,166a187.07,187.07,0,0,1-19.43,3.09c-2.67.21-2.55.34-6,.59a14,14,0,0,1-3.5-.08,3.71,3.71,0,0,1-2.1-1.11,2.91,2.91,0,0,1-.87-2.11v-.75a2.93,2.93,0,0,1,.87-2.12,3.76,3.76,0,0,1,2.1-1.1,14,14,0,0,1,3.5-.08c3.48.25,3.36.38,6,.59A189.05,189.05,0,0,1,57.24,166" transform="translate(-25.31 -47.69)" style="fill:#00b0ff"/><path d="M92.12,200.86a187.55,187.55,0,0,1,3.09,19.44c.21,2.67.34,2.54.59,6a14.14,14.14,0,0,1-.08,3.51,3.74,3.74,0,0,1-1.11,2.1,3,3,0,0,1-2.11.87h-.76a3,3,0,0,1-2.11-.87,3.8,3.8,0,0,1-1.1-2.1,14.14,14.14,0,0,1-.08-3.51c.25-3.48.38-3.35.59-6a189.54,189.54,0,0,1,3.08-19.44" transform="translate(-25.31 -47.69)" style="fill:#00b0ff"/><path d="M127,166a189.47,189.47,0,0,1,19.43-3.08c2.68-.21,2.55-.34,6-.59a14.12,14.12,0,0,1,3.51.08,3.8,3.8,0,0,1,2.1,1.1,3,3,0,0,1,.87,2.12v.75a3,3,0,0,1-.87,2.11,3.74,3.74,0,0,1-2.1,1.11,14.12,14.12,0,0,1-3.51.08c-3.48-.25-3.35-.38-6-.59A187.49,187.49,0,0,1,127,166" transform="translate(-25.31 -47.69)" style="fill:#00b0ff"/></svg>