<svg width="36" height="24" viewBox="0 0 36 24" fill="none" xmlns="http://www.w3.org/2000/svg">
<path fill-rule="evenodd" clip-rule="evenodd" d="M33.0156 1.25V20.5391C33.0156 20.668 33.1211 20.7734 33.25 20.7734H35.2773C35.4062 20.7734 35.5117 20.8789 35.5117 21.0078V23.0352C35.5117 23.1641 35.4062 23.2695 35.2773 23.2695H0.746094C0.617188 23.2695 0.511719 23.1641 0.511719 23.0352V21.0078C0.511719 20.8789 0.617188 20.7734 0.746094 20.7734H2.78125C2.91016 20.7734 3.01562 20.668 3.01562 20.5391V1.25C3.01562 0.992188 3.22656 0.78125 3.48438 0.78125H32.5469C32.8047 0.78125 33.0156 0.992188 33.0156 1.25ZM30.2773 3.28125H5.75C5.62109 3.28125 5.51562 3.38281 5.51562 3.51562V20.5352C5.51562 20.6641 5.62109 20.7695 5.75 20.7695H30.2773C30.4062 20.7695 30.5117 20.6641 30.5117 20.5352V3.51562C30.5117 3.38672 30.4062 3.28125 30.2773 3.28125ZM23.6523 10.9682L16.0312 6.2026C15.6445 5.96041 15.1602 5.94869 14.7617 6.16744C14.3633 6.38619 14.1172 6.80806 14.1172 7.26119V16.9018C14.1172 17.3588 14.3672 17.7807 14.7656 17.9995C14.9531 18.101 15.1602 18.1518 15.3672 18.1518C15.6016 18.1518 15.8359 18.0854 16.043 17.9565L23.6641 13.0815C24.0234 12.851 24.2422 12.4487 24.2383 12.0229C24.2383 11.5932 24.0156 11.1948 23.6523 10.9682ZM16.6172 9.51953V14.6211L20.6523 12.0391L16.6172 9.51953Z" fill="#36D699"/>
</svg>
