<svg width="22" height="18" viewBox="0 0 22 18" fill="none" xmlns="http://www.w3.org/2000/svg">
<path d="M15.7295 5.6516C15.5215 5.63521 15.3095 5.62701 15.0961 5.62701C11.2742 5.62701 8.17606 8.25604 8.17606 11.4986C8.17606 12.1668 8.30841 12.8104 8.55015 13.4089C8.34082 13.4226 8.12879 13.4308 7.91406 13.4308C6.87416 13.4308 6.207 13.2422 5.2981 12.9334C5.06446 12.8651 4.29331 13.2586 2.98465 14.1153C2.88877 14.1632 2.79153 14.155 2.69294 14.088C2.59435 14.0211 2.56869 13.9199 2.61461 13.7847C2.9671 12.6246 3.06704 11.9796 2.91443 11.8525C1.05746 10.6227 0 8.86958 0 6.71606C0 3.00617 3.54377 0 7.91406 0C11.8589 0 15.1285 2.44866 15.7295 5.6516ZM5.2981 5.68986C5.91258 5.68986 6.40958 5.18565 6.40958 4.56528C6.40958 3.94355 5.91123 3.4407 5.2981 3.4407C4.68496 3.4407 4.18662 3.94355 4.18662 4.56528C4.18662 5.18565 4.68361 5.68986 5.2981 5.68986ZM10.5962 5.68986C11.2107 5.68986 11.7077 5.18565 11.7077 4.56528C11.7077 3.94355 11.2093 3.4407 10.5962 3.4407C9.98306 3.4407 9.48472 3.94492 9.48472 4.56528C9.48337 5.18565 9.98171 5.68986 10.5962 5.68986ZM15.3811 17.4016C16.2508 17.4016 16.8086 17.2431 17.5689 16.9849C17.7634 16.9275 18.409 17.2568 19.5042 17.9742C19.5853 18.0152 19.6663 18.007 19.7487 17.9523C19.8311 17.8963 19.8527 17.8116 19.8135 17.6982C19.5191 16.7253 19.4354 16.1855 19.5623 16.0789C21.1168 15.05 22 13.5811 22 11.776C22 8.66871 19.037 6.15036 15.3811 6.15036C11.7252 6.15036 8.76219 8.66871 8.76219 11.776C8.76219 14.8833 11.7252 17.4016 15.3811 17.4016ZM17.5689 10.9165C17.0557 10.9165 16.6384 10.4943 16.6384 9.97366C16.6384 9.45305 17.0544 9.03081 17.5689 9.03081C18.0821 9.03081 18.4994 9.45305 18.4994 9.97366C18.4994 10.4943 18.0835 10.9165 17.5689 10.9165ZM13.1379 10.9165C12.6247 10.9165 12.2074 10.4943 12.2074 9.97366C12.2074 9.45305 12.6233 9.03081 13.1379 9.03081C13.6511 9.03081 14.0684 9.45305 14.0684 9.97366C14.0684 10.4943 13.6524 10.9165 13.1379 10.9165Z" fill="#30AF5C"/>
</svg>
