<svg width="23" height="21" viewBox="0 0 23 21" fill="none" xmlns="http://www.w3.org/2000/svg">
<path d="M22.0284 5.90038L22.0284 5.90045C21.6453 9.52589 21.2304 12.9832 20.6058 15.574C20.2936 16.8688 19.9268 17.9576 19.4795 18.7457C19.034 19.5305 18.4902 20.0482 17.8127 20.135L17.8123 20.1351C17.733 20.145 17.6528 20.15 17.5718 20.15C16.8968 20.15 16.1995 19.7951 15.4739 19.1222C14.7469 18.4479 13.9753 17.4396 13.1492 16.0971L13.1492 16.097C12.4633 14.9808 11.8844 13.864 11.4998 13.0786C11.1154 13.8647 10.5371 14.9816 9.85022 16.0971C9.02416 17.4401 8.2526 18.4484 7.52559 19.1225C6.79993 19.7954 6.10263 20.15 5.42768 20.15C5.34752 20.15 5.2674 20.145 5.18738 20.1351L5.1868 20.135C4.50924 20.0482 3.96545 19.5305 3.52 18.7457C3.0727 17.9576 2.70584 16.8688 2.3937 15.574C1.76908 12.9832 1.35416 9.52589 0.971077 5.90045L0.971069 5.90038L0.928699 5.49754C0.928696 5.49751 0.928694 5.49748 0.92869 5.49745C0.822838 4.49671 0.823261 3.64643 0.933105 2.95474C1.04278 2.2641 1.26348 1.71977 1.60847 1.34463C2.03107 0.884257 2.48986 0.85 2.61437 0.85H2.61438H2.6144H2.61441H2.61443H2.61444H2.61446H2.61447H2.61449H2.6145H2.61452H2.61453H2.61455H2.61456H2.61458H2.6146H2.61461H2.61463H2.61464H2.61466H2.61467H2.61469H2.6147H2.61472H2.61474H2.61475H2.61477H2.61478H2.6148H2.61482H2.61483H2.61485H2.61487H2.61488H2.6149H2.61492H2.61493H2.61495H2.61496H2.61498H2.615H2.61501H2.61503H2.61505H2.61506H2.61508H2.6151H2.61511H2.61513H2.61515H2.61517H2.61518H2.6152H2.61522H2.61523H2.61525H2.61526C3.39369 0.85 4.27496 1.31942 5.26628 2.21301C6.26223 3.11078 7.39222 4.45776 8.66995 6.26054C9.87431 7.95959 10.9207 9.67205 11.5006 10.6526C12.0805 9.6714 13.1269 7.95966 14.3313 6.26056C15.6086 4.45777 16.7384 3.11079 17.7342 2.21302C18.7254 1.31942 19.6067 0.85 20.3851 0.85H20.386C20.5105 0.85 20.9693 0.884255 21.3919 1.34459C21.7369 1.72015 21.9576 2.26447 22.0672 2.95511C22.1769 3.64672 22.1771 4.49682 22.0708 5.49761L22.0284 5.90038ZM17.6724 19.0179L17.6727 19.0178C17.8336 18.9972 18.1384 18.8574 18.513 18.1967C18.8867 17.5377 19.3144 16.3858 19.7297 14.3999L19.7297 14.3999C20.2994 11.6771 20.6581 8.28512 20.9215 5.79538L20.923 5.78089L20.923 5.7808L20.9654 5.37796L20.9654 5.37782C21.1993 3.17383 20.8122 2.39266 20.6027 2.1415L20.6023 2.14101C20.4918 2.00746 20.3979 1.98067 20.3758 1.9761C20.1013 1.97924 19.5901 2.122 18.7603 2.81012C17.9228 3.50459 16.7751 4.74283 15.237 6.91222C13.7641 8.98982 12.5287 11.0924 12.1242 11.7964C12.803 13.3018 13.7956 15.1573 14.825 16.6159C15.3481 17.357 15.8764 17.9895 16.3736 18.4216C16.8779 18.8597 17.3183 19.0639 17.6724 19.0179ZM2.03406 5.37696L2.03407 5.37704L2.07644 5.77988L2.07645 5.77997L2.07798 5.79445C2.34134 8.28419 2.70013 11.6762 3.26975 14.399C3.68504 16.3849 4.11283 17.5368 4.48649 18.1958C4.86109 18.8564 5.16584 18.9962 5.32678 19.0169C5.68056 19.0622 6.12084 18.8575 6.62508 18.4193C7.12227 17.9871 7.65067 17.3548 8.17393 16.614C9.20368 15.1561 10.197 13.3017 10.8762 11.7964C10.4718 11.0925 9.23901 8.99347 7.76695 6.9168C6.22752 4.74511 5.07888 3.50573 4.24086 2.81069C3.41087 2.1223 2.89954 1.97937 2.62495 1.9761C2.60251 1.98065 2.50789 2.00654 2.39714 2.1402L2.39682 2.14058C2.18731 2.39171 1.80103 3.17284 2.03406 5.37696Z" fill="#EAEAEA" stroke="#EAEAEA" stroke-width="0.3"/>
</svg>
